# File created by Blade
# Date/Time:  Fri Jan 16 17:18:57 2015
#---------------------------------------------------------
:version 1.10
:name HOM
:units
  mass 1.0
  length 1.000000
  angle deg
:documentation
     Acclaim Skeleton File
:root
   axis xyz
   order TX TY TZ RX RY RZ
   position 0.000000 0.000000 0.000000
   orientation 0 0 0
:bonedata
   begin
      id 1
      name Spine_dum
      direction 0.000000 1.000000 0.000000
      length 7.170412
      axis 0.0 0.0 0.0 xyz
   end
   begin
      id 2
      name LeftUpLeg_dum
      direction 1.000000 0.000000 0.000000
      length 4.318350
      axis 0.0 0.0 0.0 xyz
   end
   begin
      id 3
      name RightUpLeg_dum
      direction -1.000000 0.000000 0.000000
      length 4.318350
      axis 0.0 0.0 0.0 xyz
   end
   begin
      id 4
      name Spine
      direction 0.000000 1.000000 0.000000
      length 0.000000
      axis 0.0 0.0 0.0 xyz
      dof rx ry rz
   end
   begin
      id 5
      name Spine_dum1
      direction 0.000000 1.000000 0.000000
      length 14.276153
      axis 0.0 0.0 0.0 xyz
   end
   begin
      id 6
      name Spine_dum2
      direction 0.000000 1.000000 0.000000
      length 10.718243
      axis 0.0 0.0 0.0 xyz
   end
   begin
      id 7
      name Spine_dum3
      direction 0.000000 1.000000 0.000000
      length 10.718243
      axis 0.0 0.0 0.0 xyz
   end
   begin
      id 8
      name Head
      direction 0.000000 1.000000 0.000000
      length 4.527550
      axis 0.0 0.0 0.0 xyz
      dof rx ry rz
   end
   begin
      id 9
      name LeftShoulder
      direction 1.000000 0.000000 0.000000
      length 7.058872
      axis 0.0 0.0 -90.0 xyz
      dof rx ry rz
   end
   begin
      id 10
      name LeftArm
      direction 1.000000 0.000000 0.000000
      length 10.955525
      axis 0.0 0.0 -90.0 xyz
      dof rx ry rz
   end
   begin
      id 11
      name LeftForeArm
      direction 1.000000 0.000000 0.000000
      length 8.193716
      axis 0.0 0.0 -90.0 xyz
      dof ry rz rx
   end
   begin
      id 12
      name LeftHand
      direction 0.000000 0.000000 0.000000
      length 0.000000
      axis 0.0 0.0 -90.0 xyz
      dof rx ry rz
   end
   begin
      id 13
      name LeftHand_dum1
      direction 0.000000 0.000000 0.000000
      length 0.000000
      axis 0.0 0.0 -90.0 xyz
   end
   begin
      id 14
      name LeftHand_dum2
      direction 1.000000 0.000000 0.000000
      length 3.937000
      axis 0.0 0.0 -90.0 xyz
   end
   begin
      id 15
      name LeftHandThumb1
      direction 0.000000 0.000000 1.000000
      length 3.937000
      axis 0.0 0.0 -90.0 xyz
      dof rx rz ry
   end
   begin
      id 16
      name RightShoulder
      direction -1.000000 0.000000 0.000000
      length 7.058872
      axis 0.0 0.0 90.0 xyz
      dof rx ry rz
   end
   begin
      id 17
      name RightArm
      direction -1.000000 0.000000 0.000000
      length 10.955525
      axis 0.0 0.0 90.0 xyz
      dof rx ry rz
   end
   begin
      id 18
      name RightForeArm
      direction -1.000000 0.000000 0.000000
      length 8.193716
      axis 0.0 0.0 90.0 xyz
      dof ry rz rx
   end
   begin
      id 19
      name RightHand
      direction 0.000000 0.000000 0.000000
      length 0.000000
      axis 0.0 0.0 90.0 xyz
      dof rx ry rz
   end
   begin
      id 20
      name RightHand_dum1
      direction 0.000000 0.000000 0.000000
      length 0.000000
      axis 0.0 0.0 90.0 xyz
   end
   begin
      id 21
      name RightHand_dum2
      direction -1.000000 0.000000 0.000000
      length 3.937000
      axis 0.0 0.0 90.0 xyz
   end
   begin
      id 22
      name RightHandThumb1
      direction 0.000000 0.000000 1.000000
      length 3.937000
      axis 0.0 0.0 90.0 xyz
      dof rx rz ry
   end
   begin
      id 23
      name LeftUpLeg
      direction 0.000000 -1.000000 0.000000
      length 17.323638
      axis 0.0 0.0 0.0 xyz
      dof rx ry rz
   end
   begin
      id 24
      name LeftLeg
      direction 0.000000 -1.000000 0.000000
      length 16.270368
      axis 0.0 0.0 0.0 xyz
      dof rx ry rz
   end
   begin
      id 25
      name LeftFoot
      direction 0.000000 -0.258819 0.965926
      length 4.922846
      axis 15.0 0.0 0.0 xyz
      dof rx ry rz
   end
   begin
      id 26
      name LeftToeBase
      direction 0.000000 0.000000 1.000000
      length 2.952750
      axis 0.0 0.0 0.0 xyz
      dof rx ry rz
   end
   begin
      id 27
      name RightUpLeg
      direction 0.000000 -1.000000 0.000000
      length 17.323638
      axis 0.0 0.0 0.0 xyz
      dof rx ry rz
   end
   begin
      id 28
      name RightLeg
      direction 0.000000 -1.000000 0.000000
      length 16.270368
      axis 0.0 0.0 0.0 xyz
      dof rx ry rz
   end
   begin
      id 29
      name RightFoot
      direction 0.000000 -0.258819 0.965926
      length 4.922846
      axis 15.0 0.0 0.0 xyz
      dof rx ry rz
   end
   begin
      id 30
      name RightToeBase
      direction 0.000000 0.000000 1.000000
      length 2.952750
      axis 0.0 0.0 0.0 xyz
      dof rx ry rz
   end
:hierarchy
   begin
      root Spine_dum LeftUpLeg_dum RightUpLeg_dum
      Spine_dum Spine
      LeftUpLeg_dum LeftUpLeg
      RightUpLeg_dum RightUpLeg
      Spine Spine_dum1 Spine_dum2 Spine_dum3
      Spine_dum1 Head
      Spine_dum2 LeftShoulder
      Spine_dum3 RightShoulder
      LeftShoulder LeftArm
      LeftArm LeftForeArm
      LeftForeArm LeftHand
      LeftHand LeftHand_dum1 LeftHand_dum2
      LeftHand_dum1 LeftHandThumb1
      RightShoulder RightArm
      RightArm RightForeArm
      RightForeArm RightHand
      RightHand RightHand_dum1 RightHand_dum2
      RightHand_dum1 RightHandThumb1
      LeftUpLeg LeftLeg
      LeftLeg LeftFoot
      LeftFoot LeftToeBase
      RightUpLeg RightLeg
      RightLeg RightFoot
      RightFoot RightToeBase
   end

# File created by Blade
# Date/Time:  Fri Jan 16 17:19:08 2015
# Frame Rate: 120.000 fps
#------------------------------------------------------
:FULLY-SPECIFIED
:DEGREES
2041
root -5.408265 35.178924 -9.338395 -1.302035 -6.531043 -6.388799
Spine -2.113320 1.531735 9.251322
Head 6.388540 -6.378550 -7.875483
LeftShoulder -18.710034 13.694893 -15.318196
LeftArm 21.043342 -6.496505 -72.786058
LeftForeArm 15.475107 -0.000000 9.044346
LeftHand 0.476308 0.000000 -5.894076
LeftHandThumb1 -26.253704 0.000000 33.147579
RightShoulder 0.027571 7.136245 -8.248521
RightArm 8.650476 -19.629103 31.599948
RightForeArm 1.170114 0.000000 130.791302
RightHand 5.851870 -0.000000 23.397836
RightHandThumb1 -24.326973 -0.000000 -32.862282
LeftUpLeg 12.932426 14.838814 7.673010
LeftLeg -9.514064 -0.000000 0.000000
LeftFoot -16.500394 28.677606 -8.206615
LeftToeBase 22.800268 -0.000000 -0.000000
RightUpLeg 9.208591 -3.444907 4.583356
RightLeg -5.267594 -0.000000 0.000000
RightFoot -4.423722 -28.088248 3.731247
RightToeBase 13.543032 -0.000000 -0.000000
2042
root -5.408008 35.179070 -9.336301 -1.290181 -6.543339 -6.392924
Spine -2.126714 1.501802 9.243522
Head 6.417747 -6.378400 -7.893035
LeftShoulder -18.712018 13.690394 -15.316947
LeftArm 21.029580 -6.497441 -72.771713
LeftForeArm 15.478827 0.000000 9.043003
LeftHand 0.488389 -0.000000 -5.917956
LeftHandThumb1 -26.253704 0.000000 33.147579
RightShoulder 0.027582 7.377617 -8.128616
RightArm 7.910373 -17.862864 32.129633
RightForeArm 1.655686 -0.000000 130.363375
RightHand 6.033617 -0.000000 22.706460
RightHandThumb1 -24.326973 -0.000000 -32.862282
LeftUpLeg 12.928576 14.836350 7.681165
LeftLeg -9.504874 -0.000000 0.000000
LeftFoot -16.475175 28.647745 -8.134013
LeftToeBase 22.801139 -0.000000 -0.000000
RightUpLeg 9.196750 -3.455556 4.584862
RightLeg -5.261547 -0.000000 0.000000
RightFoot -4.431284 -28.072661 3.756846
RightToeBase 13.522112 -0.000000 -0.000000
2043
root -5.407020 35.179107 -9.335232 -1.274517 -6.557241 -6.395249
Spine -2.154876 1.474272 9.251579
Head 6.465256 -6.382498 -7.949862
LeftShoulder -18.707015 13.692025 -15.335405
LeftArm 21.024788 -6.499353 -72.744337
LeftForeArm 15.425919 -0.000000 9.026292
LeftHand 0.483680 -0.000000 -5.927045
LeftHandThumb1 -26.253704 0.000000 33.147579
RightShoulder -0.003545 7.471957 -8.079139
RightArm 7.334093 -15.928845 32.693190
RightForeArm 2.060272 0.000000 129.801006
RightHand 6.312480 -0.000000 22.084345
RightHandThumb1 -24.326973 -0.000000 -32.862282
LeftUpLeg 12.922144 14.819735 7.674981
LeftLeg -9.514379 -0.000000 0.000000
LeftFoot -16.467148 28.674342 -8.134939
LeftToeBase 22.793248 -0.000000 -0.000000
RightUpLeg 9.183372 -3.451697 4.584005
RightLeg -5.262266 -0.000000 0.000000
RightFoot -4.426718 -28.053499 3.739850
RightToeBase 13.558567 -0.000000 -0.000000
2044
root -5.405546 35.179224 -9.331913 -1.269126 -6.574051 -6.393444
Spine -2.175704 1.450593 9.245160
Head 6.520486 -6.410461 -7.987019
LeftShoulder -18.697872 13.682041 -15.338960
LeftArm 21.001845 -6.514828 -72.731176
LeftForeArm 15.392043 -0.000000 9.013233
LeftHand 0.503691 -0.000000 -5.950688
LeftHandThumb1 -26.253704 0.000000 33.147579
RightShoulder -0.018516 7.662327 -7.995264
RightArm 6.715154 -14.108881 33.102370
RightForeArm 2.737308 -0.000000 129.233578
RightHand 6.494766 -0.000000 21.390468
RightHandThumb1 -24.326973 -0.000000 -32.862282
LeftUpLeg 12.924577 14.848993 7.666091
LeftLeg -9.519711 -0.000000 0.000000
LeftFoot -16.522446 28.692003 -8.254683
LeftToeBase 22.778195 -0.000000 -0.000000
RightUpLeg 9.186278 -3.432880 4.579781
RightLeg -5.270375 -0.000000 0.000000
RightFoot -4.429092 -28.055160 3.768366
RightToeBase 13.498791 -0.000000 -0.000000
2045
root -5.403961 35.179167 -9.330253 -1.252252 -6.590422 -6.393714
Spine -2.207006 1.416838 9.241051
Head 6.562144 -6.412479 -8.013102
LeftShoulder -18.699993 13.677910 -15.345977
LeftArm 20.987919 -6.498471 -72.708824
LeftForeArm 15.353278 -0.000000 9.007147
LeftHand 0.476083 -0.000000 -5.951562
LeftHandThumb1 -26.253704 0.000000 33.147579
RightShoulder -0.005529 7.848057 -7.865384
RightArm 6.083278 -12.232419 33.481068
RightForeArm 3.246551 -0.000000 128.672047
RightHand 6.459839 0.000000 20.338550
RightHandThumb1 -24.326973 -0.000000 -32.862282
LeftUpLeg 12.913959 14.859241 7.659380
LeftLeg -9.517871 -0.000000 0.000000
LeftFoot -16.529654 28.699617 -8.258771
LeftToeBase 22.760153 -0.000000 -0.000000
RightUpLeg 9.164560 -3.458616 4.574971
RightLeg -5.259681 -0.000000 0.000000
RightFoot -4.424668 -28.020741 3.759053
RightToeBase 13.524740 -0.000000 -0.000000
2046
root -5.403422 35.179129 -9.328654 -1.235028 -6.604404 -6.398349
Spine -2.236652 1.400379 9.236547
Head 6.604181 -6.439175 -8.037775
LeftShoulder -18.703316 13.658523 -15.344308
LeftArm 20.974702 -6.493776 -72.694580
LeftForeArm 15.343356 -0.000000 8.997021
LeftHand 0.453598 -0.000000 -5.974113
LeftHandThumb1 -26.253704 0.000000 33.147579
RightShoulder 0.012007 8.039664 -7.708108
RightArm 5.456322 -10.262674 33.874539
RightForeArm 3.888158 -0.000000 128.067993
RightHand 6.633617 -0.000000 19.696963
RightHandThumb1 -24.326973 -0.000000 -32.862282
LeftUpLeg 12.903893 14.861706 7.667137
LeftLeg -9.509099 -0.000000 0.000000
LeftFoot -16.496926 28.671839 -8.169151
LeftToeBase 22.786429 -0.000000 -0.000000
RightUpLeg 9.148224 -3.454913 4.579284
RightLeg -5.256766 -0.000000 0.000000
RightFoot -4.423371 -28.017415 3.743512
RightToeBase 13.538485 -0.000000 -0.000000
2047
root -5.402847 35.179249 -9.326191 -1.211182 -6.629101 -6.400486
Spine -2.275311 1.424180 9.215827
Head 6.642594 -6.491122 -8.031032
LeftShoulder -18.685813 13.667571 -15.328646
LeftArm 20.974957 -6.485900 -72.692894
LeftForeArm 15.358732 -0.000000 9.003352
LeftHand 0.430239 -0.000000 -5.966608
LeftHandThumb1 -26.253704 0.000000 33.147579
RightShoulder -0.001988 8.255412 -7.551064
RightArm 4.806795 -8.400020 34.120904
RightForeArm 4.436679 0.000000 127.441781
RightHand 6.838010 -0.000000 18.914954
RightHandThumb1 -24.326973 -0.000000 -32.862282
LeftUpLeg 12.889438 14.885448 7.664416
LeftLeg -9.509289 -0.000000 0.000000
LeftFoot -16.506034 28.671213 -8.179514
LeftToeBase 22.821799 -0.000000 -0.000000
RightUpLeg 9.125418 -3.446448 4.580378
RightLeg -5.254262 -0.000000 0.000000
RightFoot -4.426475 -28.005127 3.734176
RightToeBase 13.595682 -0.000000 -0.000000
2048
root -5.401004 35.178968 -9.324129 -1.197964 -6.651684 -6.409180
Spine -2.300441 1.380687 9.225199
Head 6.673053 -6.485256 -8.065764
LeftShoulder -18.701649 13.563935 -15.298228
LeftArm 20.871202 -6.455925 -72.693907
LeftForeArm 15.332204 -0.000000 8.999469
LeftHand 0.431314 -0.000000 -5.978881
LeftHandThumb1 -26.253704 0.000000 33.147579
RightShoulder 0.068311 8.465193 -7.426101
RightArm 4.185495 -6.527324 34.386944
RightForeArm 4.878190 -0.000000 126.792134
RightHand 6.991247 -0.000000 18.009320
RightHandThumb1 -24.326973 -0.000000 -32.862282
LeftUpLeg 12.889410 14.892025 7.667181
LeftLeg -9.512380 -0.000000 0.000000
LeftFoot -16.510651 28.680982 -8.177059
LeftToeBase 22.793788 -0.000000 -0.000000
RightUpLeg 9.110651 -3.458081 4.582616
RightLeg -5.245957 -0.000000 0.000000
RightFoot -4.420399 -27.973333 3.738662
RightToeBase 13.556738 -0.000000 -0.000000
2049
root -5.399833 35.178021 -9.321581 -1.200749 -6.678757 -6.415479
Spine -2.293603 1.318286 9.233926
Head 6.664358 -6.452762 -8.103913
LeftShoulder -18.788329 13.637094 -15.359760
LeftArm 20.998588 -6.451526 -72.691639
LeftForeArm 15.323198 -0.000000 8.995253
LeftHand 0.444394 -0.000000 -6.017809
LeftHandThumb1 -26.253704 0.000000 33.147579
RightShoulder 0.145373 8.667186 -7.306991
RightArm 3.614570 -4.691067 34.619191
RightForeArm 5.409358 -0.000000 126.121681
RightHand 7.070520 0.000000 17.087572
RightHandThumb1 -24.326973 -0.000000 -32.862282
LeftUpLeg 12.909217 14.926194 7.668821
LeftLeg -9.532542 -0.000000 0.000000
LeftFoot -16.546557 28.713614 -8.240802
LeftToeBase 22.785895 -0.000000 -0.000000
RightUpLeg 9.115804 -3.446668 4.583314
RightLeg -5.242626 -0.000000 0.000000
RightFoot -4.415586 -27.952889 3.710544
RightToeBase 13.575302 -0.000000 -0.000000
